<svg width="79" height="106" viewBox="0 0 79 106" fill="none" xmlns="http://www.w3.org/2000/svg">
<path d="M73.1923 19.7598V6C73.1923 4.34315 71.8492 3 70.1923 3H8.80769C7.15084 3 5.80769 4.34315 5.80769 6V19.7598M73.1923 19.7598H40.0615M73.1923 19.7598L75.8954 99.8989C75.9526 101.594 74.5936 103 72.8971 103H56.4283C55.0582 103 53.8622 102.072 53.5221 100.745L42.4061 57.3593C41.6356 54.3521 37.3644 54.3521 36.5939 57.3593L25.4779 100.745C25.1378 102.072 23.9418 103 22.5717 103H6.1029C4.4064 103 3.04741 101.594 3.1046 99.8989L5.80769 19.7598M5.80769 19.7598H38.9385M38.9385 19.7598V30.9301C38.9385 31.2402 39.1899 31.4916 39.5 31.4916V31.4916C39.8101 31.4916 40.0615 31.2402 40.0615 30.9301V19.7598M38.9385 19.7598H40.0615" stroke="#4E4E4E" stroke-width="6"/>
</svg>
