<svg width="108" height="108" viewBox="0 0 108 108" fill="none" xmlns="http://www.w3.org/2000/svg">
<path d="M52.2635 4.91109V102.589C52.2635 103.644 53.1192 104.5 54.1746 104.5C55.2301 104.5 56.0857 103.644 56.0857 102.589V4.91109C56.0857 3.85562 55.2301 3 54.1746 3C53.1192 3 52.2635 3.85562 52.2635 4.91109Z" stroke="#4E4E4E" stroke-width="6"/>
<path d="M4.91109 56.0858L102.589 56.0858C103.644 56.0858 104.5 55.2302 104.5 54.1747C104.5 53.1192 103.644 52.2636 102.589 52.2636L4.91109 52.2636C3.85562 52.2636 3 53.1192 3 54.1747C3 55.2302 3.85562 56.0858 4.91109 56.0858Z" stroke="#4E4E4E" stroke-width="6"/>
</svg>
