<svg width="114" height="108" viewBox="0 0 114 108" fill="none" xmlns="http://www.w3.org/2000/svg">
<path d="M75.6897 4.12962C81.7017 6.08239 90.936 7.9078 94.3973 8.5613C95.271 8.72624 96.0254 9.2615 96.4665 10.0334L110.524 34.6303C111.341 36.0599 110.854 37.8809 109.431 38.7104L99.8699 44.2869C98.4298 45.1268 96.5811 44.6314 95.7539 43.184L93.3978 39.0616C91.8713 36.3908 87.7932 37.474 87.7932 40.5502V102C87.7932 103.657 86.45 105 84.7932 105H57H29.2068C27.55 105 26.2068 103.657 26.2068 102V67.1276V40.5502C26.2068 37.4739 22.1287 36.3908 20.6022 39.0616L18.2461 43.184C17.4189 44.6314 15.5702 45.1268 14.1301 44.2869L4.56881 38.7104C3.14646 37.8809 2.65856 36.0599 3.47561 34.6303L17.5409 10.0204C17.9778 9.25597 18.7221 8.72331 19.5859 8.55286C22.934 7.89219 31.7524 6.07406 37.729 4.12963M75.6897 4.12962C74.3858 7.87458 71.2292 12.2914 70.0723 13.8403C69.7896 14.2188 69.4077 14.5181 68.9792 14.7173C58.3335 19.6656 57.1706 20.2323 46.3559 14.6065C46.112 14.4796 45.8825 14.3182 45.6855 14.1264C44.4512 12.9242 39.6846 8.14142 37.729 4.12963M75.6897 4.12962C75.0672 4.34656 72.9728 2.81808 72.3888 3.0181M75.6897 4.12962L72.3888 3.0181M37.729 4.12963C38.1515 4.28657 41.0402 2.87026 41.4443 3.0181M37.729 4.12963L41.4443 3.0181M41.4443 3.0181C54.8053 7.90642 58.8401 7.65896 72.3888 3.0181" stroke="#4E4E4E" stroke-width="6"/>
</svg>
