<svg width="73" height="48" viewBox="0 0 73 48" fill="none" xmlns="http://www.w3.org/2000/svg">
<path d="M70 37.5V42C70 43.6569 68.6569 45 67 45H6C4.34315 45 3 43.6569 3 42V37.5M70 37.5H3M70 37.5C70.111 27.8567 68.4176 23.3809 62.6563 17.6425C62.2328 17.2207 61.6855 16.945 61.0967 16.8419L42.8056 13.641C42.2782 13.5487 41.785 13.3169 41.3774 12.9696L39.0652 11L30.7757 3.93858C29.5176 2.86683 27.6476 3.04599 26.378 4.10415C21.3123 8.32625 14.9049 8.43679 7.97012 5.00338C5.7867 3.92237 3 5.37369 3 7.81007V37.5" stroke="#4E4E4E" stroke-width="6"/>
<path d="M37 9L25.5881 12.0578C25.2968 12.1359 25.1651 12.4745 25.3272 12.7289V12.7289C25.4304 12.8908 25.6256 12.9686 25.8119 12.922L37.5 10M50 15L37.1151 18.4525C36.8037 18.5359 36.655 18.8909 36.8138 19.1714V19.1714C36.9237 19.3652 37.15 19.4613 37.3657 19.4056L52.5 15.5" stroke="#4E4E4E" stroke-width="6"/>
</svg>
