<svg width="88" height="120" viewBox="0 0 88 120" fill="none" xmlns="http://www.w3.org/2000/svg">
<path d="M44 3H6C4.34315 3 3 4.34314 3 6V99C3 100.657 4.34315 102 6 102H9.5M44 3V102M44 3H82C83.6569 3 85 4.34314 85 6V99C85 100.657 83.6569 102 82 102H78.5M44 102H22.5M44 102H65.5M9.5 102V113.5C9.5 115.157 10.8431 116.5 12.5 116.5H16.2155C17.5651 116.5 18.7486 115.599 19.1075 114.298L22.5 102M9.5 102H22.5M78.5 102V113.5C78.5 115.157 77.1569 116.5 75.5 116.5H71.7845C70.4349 116.5 69.2514 115.599 68.8925 114.298L65.5 102M78.5 102H65.5M52.75 47V47C52.8881 47 53 47.1119 53 47.25V55.25C53 55.3881 52.8881 55.5 52.75 55.5V55.5C52.6119 55.5 52.5 55.3881 52.5 55.25V47.25C52.5 47.1119 52.6119 47 52.75 47ZM35 47.25V55.25C35 55.3881 35.1119 55.5 35.25 55.5V55.5C35.3881 55.5 35.5 55.3881 35.5 55.25V47.25C35.5 47.1119 35.3881 47 35.25 47V47C35.1119 47 35 47.1119 35 47.25Z" stroke="#4E4E4E" stroke-width="6"/>
</svg>
