<svg width="87" height="87" viewBox="0 0 87 87" fill="none" xmlns="http://www.w3.org/2000/svg">
<g filter="url(#filter0_d_696_183)">
<rect x="4" width="79" height="79" rx="20" fill="white"/>
</g>
<path d="M51.8254 17.5094C54.1353 18.269 57.5131 18.9859 59.3875 19.3578C60.2628 19.5314 61.0243 20.0722 61.463 20.8493L66.5536 29.8669C67.3569 31.2899 66.8736 33.0941 65.4665 33.925L62.9922 35.386C62.1355 35.8918 61.0304 35.5958 60.5413 34.7294V34.7294C59.6431 33.1383 57.217 33.7758 57.217 35.6029V60C57.217 61.6569 55.8738 63 54.217 63H43.5H32.783C31.1262 63 29.783 61.6569 29.783 60V45.9203V35.6029C29.783 33.7758 27.3569 33.1383 26.4587 34.7294V34.7294C25.9696 35.5958 24.8645 35.8918 24.0078 35.386L21.5335 33.925C20.1264 33.0941 19.6431 31.2899 20.4464 29.8669L25.5445 20.8361C25.9789 20.0666 26.7298 19.5284 27.5952 19.3493C29.4025 18.9751 32.6269 18.2633 34.9156 17.5094M51.8254 17.5094C51.3176 18.9859 50.1791 20.694 49.5564 21.567C49.2813 21.9527 48.9031 22.253 48.4744 22.4545C44.1287 24.4969 43.4694 24.6998 38.962 22.3411C38.7175 22.2132 38.4915 22.0511 38.297 21.8554C37.5745 21.1287 35.7163 19.1722 34.9156 17.5094M51.8254 17.5094C51.5481 17.6073 50.6151 16.918 50.355 17.0082M51.8254 17.5094L50.355 17.0082M34.9156 17.5094C35.1038 17.5802 36.3906 16.9415 36.5706 17.0082M34.9156 17.5094L36.5706 17.0082M36.5706 17.0082C42.5223 19.2127 44.3197 19.1011 50.355 17.0082" stroke="#4E4E4E" stroke-width="3"/>
<defs>
<filter id="filter0_d_696_183" x="0" y="0" width="87" height="87" filterUnits="userSpaceOnUse" color-interpolation-filters="sRGB">
<feFlood flood-opacity="0" result="BackgroundImageFix"/>
<feColorMatrix in="SourceAlpha" type="matrix" values="0 0 0 0 0 0 0 0 0 0 0 0 0 0 0 0 0 0 127 0" result="hardAlpha"/>
<feOffset dy="4"/>
<feGaussianBlur stdDeviation="2"/>
<feComposite in2="hardAlpha" operator="out"/>
<feColorMatrix type="matrix" values="0 0 0 0 0 0 0 0 0 0 0 0 0 0 0 0 0 0 0.25 0"/>
<feBlend mode="normal" in2="BackgroundImageFix" result="effect1_dropShadow_696_183"/>
<feBlend mode="normal" in="SourceGraphic" in2="effect1_dropShadow_696_183" result="shape"/>
</filter>
</defs>
</svg>
